<?xml version="1.0"?>
<svg xmlns="http://www.w3.org/2000/svg" viewBox="0 0 64 64" width="512" height="512"><g id="outline"><path d="M55.443,21.154a1.025,1.025,0,0,0-.224-.1.229.229,0,0,1-.023-.01A1.016,1.016,0,0,0,54.91,21H51.618l.829-1.659A5.257,5.257,0,0,0,53,17a5,5,0,0,0-10,0,5.264,5.264,0,0,0,.553,2.342L44.382,21H41.09a1.016,1.016,0,0,0-.286.043.229.229,0,0,1-.023.01,1.025,1.025,0,0,0-.224.1A13.964,13.964,0,0,0,35.886,40H35a1,1,0,0,0-1,1V61a1,1,0,0,0,1,1H61a1,1,0,0,0,1-1V41a1,1,0,0,0-1-1h-.886a13.964,13.964,0,0,0-4.671-18.846Zm-10.1-2.706A3.252,3.252,0,0,1,45,17a3,3,0,0,1,6,0,3.245,3.245,0,0,1-.342,1.447L49.382,21H46.618ZM46,23h6.531l-.151.155a6.122,6.122,0,0,1-8.76,0L43.469,23ZM36,33a11.922,11.922,0,0,1,4.975-9.69l1.213,1.242a8.123,8.123,0,0,0,11.624,0l1.213-1.242A11.926,11.926,0,0,1,57.73,40H38.27A11.824,11.824,0,0,1,36,33ZM60,44H36V42H60Zm0,12H36V46H60ZM36,60V58H60v2Z"/><path d="M3,62H29a1,1,0,0,0,1-1V23a1,1,0,0,0-1-1H9.721a35.955,35.955,0,0,0,6.3-5.371C20.854,11.538,24.566,5.138,22.3,2.756A2.573,2.573,0,0,0,20.355,2h0A9.085,9.085,0,0,0,16.16,3.462l-1.818-.909A5.261,5.261,0,0,0,12,2,5.006,5.006,0,0,0,7,7a4.954,4.954,0,0,0,1.2,3.216c-3.979,4.417-6.947,9.552-5.992,12.2A.974.974,0,0,0,2,23V61A1,1,0,0,0,3,62Zm25-8v2H4V54H9V52H4V42h7.1a5,5,0,0,0,9.8,0H28V52H23v2ZM13,41a3,3,0,1,1,3,3A3,3,0,0,1,13,41Zm15-1H20.9a5,5,0,0,0-9.8,0H4V28H28ZM4,60V58H28v2ZM28,24v2H4V24H28ZM12,4a3.245,3.245,0,0,1,1.447.342l.774.387A37.119,37.119,0,0,0,9.58,8.758,2.989,2.989,0,0,1,12,4Zm4,1.936V8.382L13.447,9.658A3.245,3.245,0,0,1,12,10a2.957,2.957,0,0,1-.721-.1A33.495,33.495,0,0,1,16,5.936ZM9.781,11.457A4.935,4.935,0,0,0,12,12a5.261,5.261,0,0,0,2.342-.553l3.1-1.552A1,1,0,0,0,18,9V5a.948.948,0,0,0-.033-.232A6.014,6.014,0,0,1,20.355,4a.74.74,0,0,1,.5.133h0c.725.764-.834,5.381-6.285,11.117C10.358,19.682,6.39,22,4.645,22a.739.739,0,0,1-.5-.134C3.452,21.134,4.865,16.861,9.781,11.457Z"/><path d="M38,33a9.952,9.952,0,0,0,1.685,5.556l1.662-1.112a8,8,0,0,1,1.32-10.407l-1.334-1.49A10.013,10.013,0,0,0,38,33Z"/><path d="M56.315,38.557a10,10,0,0,0-1.648-13.01l-1.334,1.49a8,8,0,0,1,1.32,10.407Z"/><path d="M38.5,51.867a18.2,18.2,0,0,0,8.882,2.115A19.069,19.069,0,0,0,55.212,52.4,3.422,3.422,0,0,0,58,54V52a1.33,1.33,0,0,1-1.235-1A1.33,1.33,0,0,1,58,50V48a3.422,3.422,0,0,0-2.788,1.6c-4.924-2.266-12.149-2.09-16.711.537a1,1,0,0,0,0,1.734ZM53.4,51a18.392,18.392,0,0,1-12.032,0A18.385,18.385,0,0,1,53.4,51Z"/><rect x="15" y="52" width="2" height="2"/><rect x="11" y="52" width="2" height="2"/><rect x="19" y="52" width="2" height="2"/><rect x="17" y="30" width="2" height="4"/><rect x="13" y="30" width="2" height="4"/><rect x="21" y="30" width="2" height="4"/><rect x="9" y="30" width="2" height="4"/><rect x="11" y="48" width="10" height="2"/></g></svg>
