<svg id="Capa_1" enable-background="new 0 0 512 512" height="512" viewBox="0 0 512 512" width="512" xmlns="http://www.w3.org/2000/svg"><g><path d="m169.832 221.894c-11.083-8.737-19.838-15.638-19.838-47.969v-63.083c6.738-3.591 11.338-10.684 11.338-18.837v-19.502c0-11.767-9.572-21.339-21.338-21.339h-1.508v-26.226c0-13.75-11.187-24.938-24.938-24.938h-28.205c-13.751 0-24.938 11.188-24.938 24.938v26.226h-1.509c-11.766 0-21.338 9.572-21.338 21.339v19.502c0 8.153 4.601 15.246 11.338 18.837v63.083c0 32.331-8.754 39.231-19.838 47.969-13.62 10.737-29.058 22.907-29.058 70.148v190.853c0 16.048 13.043 29.105 29.077 29.105h140.738c16.033 0 29.077-13.057 29.077-29.105v-75.712c0-5.522-4.477-10-10-10s-10 4.478-10 10v75.712c0 4.936-4.157 9.105-9.077 9.105h-140.738c-5.005 0-9.077-4.085-9.077-9.105v-33.652h81.614c19.612 0 35.568-15.956 35.568-35.568v-102.783c0-19.628-15.956-35.596-35.568-35.596h-80.783c2.609-23.483 11.066-30.173 20.609-37.695 11.782-9.288 24.995-19.728 27.145-53.676h61.719c2.15 33.948 15.364 44.387 27.146 53.676 11.504 9.068 21.44 16.901 21.44 54.441v25.341c0 5.522 4.477 10 10 10s10-4.478 10-10v-25.341c.001-47.241-15.437-59.411-29.058-70.148zm-68.218 73.402c8.584 0 15.568 6.996 15.568 15.596v102.782c0 8.584-6.984 15.568-15.568 15.568h-81.614v-133.946zm-21.209-270.358c0-2.677 2.261-4.938 4.938-4.938h28.205c2.677 0 4.938 2.262 4.938 4.938v26.226h-38.081zm49.589 138.987h-61.098v-50.582h61.098zm11.339-71.92c0 .713-.625 1.338-1.338 1.338h-81.099c-.713 0-1.338-.625-1.338-1.338v-19.502c0-.713.625-1.339 1.338-1.339h81.098c.713 0 1.338.626 1.338 1.339v19.502z"/><path d="m435.717 389.116-25.394-14.663v-29.319c0-3.57-1.903-6.869-4.994-8.656l-30.398-17.553c-3.092-1.783-6.897-1.783-9.989 0l-30.398 17.553c-3.09 1.787-4.994 5.086-4.994 8.656v29.319l-25.394 14.663c-3.565 2.064-4.993 5.745-4.993 9.682v9.244 23.225c0 .861-.027 1.728.057 2.586.31 3.17 2.19 6.08 4.949 7.673l30.388 17.518c1.545.892 3.27 1.337 4.994 1.337s3.449-.445 4.995-1.337l25.392-14.638 25.392 14.638c1.546.892 3.27 1.337 4.995 1.337s3.449-.445 4.995-1.337l30.386-17.518c3.097-1.785 5.006-5.088 5.006-8.663v-35.092c-.002-3.568-1.905-6.868-4.995-8.655zm-75.78 37.971-20.387 11.752-20.387-11.752v-23.542l20.387-11.776 20.387 11.772zm9.999-40.862-20.386-11.772v-23.551l20.387-11.771 20.387 11.771v23.546zm50.774 40.862-20.387 11.752-20.387-11.752v-23.541l20.387-11.773 20.386 11.769v23.545z"/><path d="m474.583 267.635v-28.019c9.094-.923 16.214-8.624 16.214-17.957v-37.983c0-15.721-12.79-28.511-28.51-28.511h-184.702c-15.736 0-28.538 12.79-28.538 28.511v37.983c0 9.333 7.12 17.034 16.214 17.957v28.021c-21.343 4.604-37.389 23.617-37.389 46.316v150.63c0 26.146 21.258 47.417 47.389 47.417h189.322c26.146 0 47.417-21.271 47.417-47.417v-150.63c0-22.701-16.058-41.716-37.417-46.318zm-39.23-92.47h26.935c4.692 0 8.51 3.818 8.51 8.511v36.033h-35.445zm19.23 64.544v26.856h-169.322v-26.856zm-74.646-64.544h35.416v44.544h-35.416zm-55.445 0h35.445v44.544h-35.445zm-55.445 8.511c0-4.692 3.83-8.511 8.538-8.511h26.906v44.544h-35.444zm222.953 280.907c0 15.118-12.299 27.417-27.417 27.417h-189.322c-15.102 0-27.389-12.299-27.389-27.417v-150.63c0-15.102 12.287-27.388 27.389-27.388h189.322c15.118 0 27.417 12.286 27.417 27.388z"/><path d="m188.891 352.283c-5.523 0-10 4.478-10 10v.028c0 5.522 4.477 9.986 10 9.986s10-4.492 10-10.015-4.477-9.999-10-9.999z"/></g></svg>