<?xml version="1.0" encoding="iso-8859-1"?>
<!-- Generator: Adobe Illustrator 19.0.0, SVG Export Plug-In . SVG Version: 6.00 Build 0)  -->
<svg version="1.1" id="Capa_1" xmlns="http://www.w3.org/2000/svg" xmlns:xlink="http://www.w3.org/1999/xlink" x="0px" y="0px"
	 viewBox="0 0 512 512" style="enable-background:new 0 0 512 512;" xml:space="preserve">
<g>
	<g>
		<path d="M201.47,440.387h-73.687c-5.545,0-10.039,4.495-10.039,10.039s4.495,10.039,10.039,10.039h73.687
			c5.545,0,10.039-4.495,10.039-10.039S207.015,440.387,201.47,440.387z"/>
	</g>
</g>
<g>
	<g>
		<path d="M227.783,440.387c-12.919,0-12.941,20.078,0,20.078C240.702,460.466,240.723,440.387,227.783,440.387z"/>
	</g>
</g>
<g>
	<g>
		<path d="M444.938,0H182.583c-0.047,0-0.091,0.006-0.139,0.007c-0.283,0.004-0.566,0.015-0.847,0.043
			c-0.167,0.016-0.329,0.047-0.494,0.071c-0.16,0.023-0.319,0.041-0.478,0.073c-0.18,0.036-0.354,0.084-0.531,0.13
			c-0.141,0.036-0.282,0.066-0.422,0.108c-0.172,0.052-0.338,0.116-0.506,0.177c-0.141,0.051-0.283,0.097-0.422,0.155
			c-0.158,0.065-0.308,0.142-0.462,0.214c-0.144,0.068-0.288,0.131-0.43,0.207c-0.147,0.078-0.286,0.168-0.429,0.253
			c-0.138,0.083-0.28,0.162-0.416,0.252c-0.156,0.104-0.302,0.22-0.452,0.332c-0.112,0.084-0.228,0.163-0.338,0.253
			c-0.257,0.211-0.504,0.433-0.739,0.668L59.964,118.461c-0.235,0.234-0.457,0.481-0.667,0.738c-0.091,0.111-0.172,0.23-0.258,0.344
			c-0.11,0.147-0.224,0.291-0.327,0.445c-0.093,0.14-0.174,0.283-0.259,0.426c-0.083,0.139-0.17,0.274-0.246,0.418
			c-0.077,0.145-0.143,0.294-0.213,0.442c-0.07,0.15-0.145,0.296-0.209,0.449c-0.059,0.143-0.106,0.289-0.159,0.434
			c-0.059,0.164-0.122,0.325-0.173,0.493c-0.043,0.145-0.075,0.291-0.112,0.437c-0.043,0.172-0.091,0.34-0.125,0.515
			c-0.033,0.167-0.052,0.335-0.077,0.504c-0.023,0.156-0.052,0.309-0.067,0.467c-0.03,0.306-0.044,0.614-0.046,0.922
			c0,0.022-0.003,0.044-0.003,0.067v376.401c0,5.545,4.495,10.039,10.039,10.039h377.876c5.544,0,10.039-4.495,10.039-10.039V10.039
			C454.977,4.495,450.482,0,444.938,0z M172.544,34.276v81.245H91.299L172.544,34.276z M434.899,491.922H77.101V135.6h105.482
			c5.545,0,10.039-4.495,10.039-10.039V20.078h242.276V491.922z"/>
	</g>
</g>
<g>
</g>
<g>
</g>
<g>
</g>
<g>
</g>
<g>
</g>
<g>
</g>
<g>
</g>
<g>
</g>
<g>
</g>
<g>
</g>
<g>
</g>
<g>
</g>
<g>
</g>
<g>
</g>
<g>
</g>
</svg>
