<?xml version="1.0"?>
<svg xmlns="http://www.w3.org/2000/svg" viewBox="0 0 512 512" width="512" height="512"><g id="Outline"><path d="M436.59,178.316,416,149.441V112a8,8,0,0,0-8-8H360a8,8,0,0,0-8,8v37.441l-20.582,28.864A104.056,104.056,0,0,0,325.2,188.1l13.969,7.8a88.008,88.008,0,0,1,5.266-8.3l22.078-30.96A8,8,0,0,0,368,152V120h32v32a8,8,0,0,0,1.488,4.645l22.1,30.992A86.423,86.423,0,0,1,434.4,208H376v16h62.6a89.347,89.347,0,0,1,1.4,14.8V240H376v16h64v16H376v16h60.893l-1.924,5.871a56.835,56.835,0,0,0-.012,36.223l2.895,8.832A41.339,41.339,0,0,1,440,352H376v16h64v16H376v16h64v16H376v16h64v32a16.016,16.016,0,0,1-16,16H406.641a8.022,8.022,0,0,1-5.7-2.375,24.4,24.4,0,0,0-33.876,0l11.313,11.313a8.02,8.02,0,0,1,11.25,0A23.917,23.917,0,0,0,406.641,496H424a32.036,32.036,0,0,0,32-32V352a57.251,57.251,0,0,0-2.957-18.094l-2.895-8.832a40.861,40.861,0,0,1,.012-26.183l2.9-8.844a71.885,71.885,0,0,0,2.211-8.844A61.563,61.563,0,0,0,456,272V238.8a106.361,106.361,0,0,0-2.945-24.692A102.367,102.367,0,0,0,436.59,178.316Z"/><path d="M56,192V434a62.069,62.069,0,0,0,62,62,61.448,61.448,0,0,0,37.215-12.41,21.327,21.327,0,0,1,25.578,0,61.636,61.636,0,0,0,34.91,12.367l.594-15.992a45.625,45.625,0,0,1-25.879-9.16,37.4,37.4,0,0,0-44.828,0A45.545,45.545,0,0,1,118,480a46.054,46.054,0,0,1-46-46V392H216V376H72V216H248V200H72v-8a95.776,95.776,0,0,1,66.465-91.352A7.993,7.993,0,0,0,144,93.039V72h48V93.039a7.993,7.993,0,0,0,5.535,7.609,95.631,95.631,0,0,1,66.184,83.961l15.953-1.218A111.517,111.517,0,0,0,208,87.379V72h16V56H208V24a8,8,0,0,0-8-8H136a8,8,0,0,0-8,8V56H112V72h16V87.379A111.7,111.7,0,0,0,56,192ZM144,32h48V56H144Z"/><path d="M123.57,125.461l8.86,13.32a64.537,64.537,0,0,1,15.871-7.648l-4.922-15.227A80.5,80.5,0,0,0,123.57,125.461Z"/><path d="M104.391,184.879a64.1,64.1,0,0,1,17.386-37.188L110.238,136.6a80.24,80.24,0,0,0-21.754,46.516Z"/><rect x="88" y="232" width="16" height="16"/><rect x="88" y="264" width="16" height="72"/><rect x="264" y="280" width="16" height="24"/><path d="M296,192c-17.945,0-32,10.543-32,24v27.062l-18.7,9.383A23.9,23.9,0,0,0,232,273.922V312a8,8,0,0,0,.844,3.578L239.055,328l-6.211,12.422A8,8,0,0,0,232,344v16a8,8,0,0,0,.844,3.578L239.055,376l-6.211,12.422A8,8,0,0,0,232,392v16a8,8,0,0,0,.844,3.578L239.055,424l-6.211,12.422A8,8,0,0,0,232,440v32a24.037,24.037,0,0,0,24,24h80a25.431,25.431,0,0,0,5.438-.613A23.965,23.965,0,0,0,360,472V440a8,8,0,0,0-.844-3.578L352.945,424l6.211-12.422A8,8,0,0,0,360,408V392a8,8,0,0,0-.844-3.578L352.945,376l6.211-12.422A8,8,0,0,0,360,360V344a8,8,0,0,0-.844-3.578L352.945,328l6.211-12.422A8,8,0,0,0,360,312V273.922a23.884,23.884,0,0,0-13.293-21.469L328,243.062V216C328,202.543,313.945,192,296,192Zm0,16c9.766,0,16,4.738,16,8s-6.234,8-16,8-16-4.738-16-8S286.234,208,296,208Zm43.543,58.758A7.977,7.977,0,0,1,344,273.922v36.191L339.055,320H272v16h67.055L344,345.887v12.226L339.055,368H272v16h67.055L344,393.887v12.226L339.055,416H272v16h67.055L344,441.887V472a8.085,8.085,0,0,1-6.062,7.777A9.369,9.369,0,0,1,336,480H256a8.024,8.024,0,0,1-6.367-3.184A7.866,7.866,0,0,1,248,472V441.887l7.156-14.309a8.008,8.008,0,0,0,0-7.156L248,406.113V393.887l7.156-14.309a8.008,8.008,0,0,0,0-7.156L248,358.113V345.887l7.156-14.309a8.008,8.008,0,0,0,0-7.156L248,310.113V273.922a7.991,7.991,0,0,1,4.465-7.172l23.121-11.6A7.991,7.991,0,0,0,280,248V236.764a41.173,41.173,0,0,0,32,0V248a7.991,7.991,0,0,0,4.414,7.148Z"/></g></svg>
